<mxfile host="app.diagrams.net" agent="Mozilla/5.0 (Windows NT 10.0; Win64; x64) AppleWebKit/537.36 (KHTML, like Gecko) Chrome/130.0.0.0 Safari/537.36" version="24.8.4">
  <diagram name="Page-1" id="FNmSrduUZ5u_OLCGWbWd">
    <mxGraphModel dx="1406" dy="893" grid="0" gridSize="10" guides="1" tooltips="1" connect="1" arrows="1" fold="1" page="0" pageScale="1" pageWidth="850" pageHeight="1100" math="0" shadow="0">
      <root>
        <mxCell id="0" />
        <mxCell id="1" parent="0" />
        <mxCell id="ILpzqOGEgMHz32oO7xNn-135" value="" style="rounded=0;whiteSpace=wrap;html=1;textShadow=0;strokeColor=default;dashed=1;fillColor=#F5F5F5;dashPattern=1 4;shadow=1;" parent="1" vertex="1">
          <mxGeometry x="-303" width="321" height="215" as="geometry" />
        </mxCell>
        <mxCell id="KnMCrY_Kx2zRuAthfWW4-54" value="" style="rounded=0;whiteSpace=wrap;html=1;textShadow=0;strokeColor=default;dashed=1;fillColor=#CFDBF7;" parent="1" vertex="1">
          <mxGeometry x="-173" y="24" width="174" height="180" as="geometry" />
        </mxCell>
        <mxCell id="ILpzqOGEgMHz32oO7xNn-144" value="" style="rounded=0;whiteSpace=wrap;html=1;textShadow=0;strokeColor=#005700;dashed=1;fillColor=#F5F5F5;dashPattern=1 4;shadow=1;" parent="1" vertex="1">
          <mxGeometry x="-303" y="257.5" width="322" height="222.5" as="geometry" />
        </mxCell>
        <mxCell id="ILpzqOGEgMHz32oO7xNn-142" value="" style="rounded=0;whiteSpace=wrap;html=1;textShadow=0;strokeColor=#174BFA;dashed=1;fillColor=#F5F5F5;fontColor=#ffffff;dashPattern=1 4;shadow=1;" parent="1" vertex="1">
          <mxGeometry x="75" y="2" width="849" height="751" as="geometry" />
        </mxCell>
        <mxCell id="ILpzqOGEgMHz32oO7xNn-136" value="" style="rounded=1;whiteSpace=wrap;html=1;textShadow=0;strokeColor=default;dashed=1;fillColor=#F7E3EE;shadow=1;" parent="1" vertex="1">
          <mxGeometry x="533" y="168.5" width="227" height="102" as="geometry" />
        </mxCell>
        <mxCell id="ILpzqOGEgMHz32oO7xNn-134" value="" style="rounded=1;whiteSpace=wrap;html=1;textShadow=0;dashed=1;fillColor=#f7e3ee;shadow=1;" parent="1" vertex="1">
          <mxGeometry x="261" y="28" width="229" height="108" as="geometry" />
        </mxCell>
        <mxCell id="hqVNRMzppCiJ99_KFiAW-224" style="edgeStyle=orthogonalEdgeStyle;rounded=0;orthogonalLoop=1;jettySize=auto;html=1;entryX=0;entryY=0.5;entryDx=0;entryDy=0;" parent="1" source="ILpzqOGEgMHz32oO7xNn-1" target="hqVNRMzppCiJ99_KFiAW-222" edge="1">
          <mxGeometry relative="1" as="geometry" />
        </mxCell>
        <mxCell id="ILpzqOGEgMHz32oO7xNn-1" value="Users" style="outlineConnect=0;fontColor=#232F3E;gradientColor=none;strokeColor=#232F3E;fillColor=#ffffff;dashed=0;verticalLabelPosition=bottom;verticalAlign=top;align=center;html=1;fontSize=12;fontStyle=0;aspect=fixed;shape=mxgraph.aws4.resourceIcon;resIcon=mxgraph.aws4.users;rounded=0;" parent="1" vertex="1">
          <mxGeometry x="-390" y="343.5" width="60" height="60" as="geometry" />
        </mxCell>
        <mxCell id="hqVNRMzppCiJ99_KFiAW-228" style="edgeStyle=orthogonalEdgeStyle;rounded=0;orthogonalLoop=1;jettySize=auto;html=1;entryX=0.5;entryY=0;entryDx=0;entryDy=0;" parent="1" source="ILpzqOGEgMHz32oO7xNn-2" target="hqVNRMzppCiJ99_KFiAW-222" edge="1">
          <mxGeometry relative="1" as="geometry" />
        </mxCell>
        <mxCell id="ILpzqOGEgMHz32oO7xNn-2" value="" style="verticalLabelPosition=bottom;html=1;verticalAlign=top;align=center;strokeColor=none;fillColor=#00BEF2;shape=mxgraph.azure.website_generic;pointerEvents=1;rounded=0;" parent="1" vertex="1">
          <mxGeometry x="-178.5" y="286" width="67" height="70.5" as="geometry" />
        </mxCell>
        <mxCell id="ILpzqOGEgMHz32oO7xNn-11" value="&lt;font style=&quot;font-size: 11px;&quot;&gt;CDN&lt;/font&gt;" style="text;html=1;align=center;verticalAlign=middle;resizable=0;points=[];autosize=1;strokeColor=none;fillColor=none;fontSize=16;rounded=0;" parent="1" vertex="1">
          <mxGeometry x="-144.75" y="259.5" width="42" height="31" as="geometry" />
        </mxCell>
        <mxCell id="ILpzqOGEgMHz32oO7xNn-27" value="" style="rounded=1;whiteSpace=wrap;html=1;fillColor=#f5f5f5;gradientColor=#b3b3b3;strokeColor=#666666;" parent="1" vertex="1">
          <mxGeometry x="280" y="51" width="95" height="53" as="geometry" />
        </mxCell>
        <mxCell id="ILpzqOGEgMHz32oO7xNn-28" value="Elastic&amp;nbsp;" style="shape=cylinder3;whiteSpace=wrap;html=1;boundedLbl=1;backgroundOutline=1;size=15;rounded=0;fillColor=#CCCCFF;fontColor=#ffffff;strokeColor=#000000;" parent="1" vertex="1">
          <mxGeometry x="412" y="42" width="51" height="72" as="geometry" />
        </mxCell>
        <mxCell id="ILpzqOGEgMHz32oO7xNn-49" value="" style="rounded=1;whiteSpace=wrap;html=1;fillColor=#cdeb8b;strokeColor=#36393d;shadow=1;" parent="1" vertex="1">
          <mxGeometry x="552.5" y="185" width="95" height="53" as="geometry" />
        </mxCell>
        <mxCell id="ILpzqOGEgMHz32oO7xNn-50" value="" style="rounded=1;whiteSpace=wrap;html=1;fillColor=#f5f5f5;gradientColor=#b3b3b3;strokeColor=#666666;" parent="1" vertex="1">
          <mxGeometry x="285" y="56" width="95" height="53" as="geometry" />
        </mxCell>
        <mxCell id="O0o4bAYuVbN3omt0_8oD-17" value="" style="edgeStyle=orthogonalEdgeStyle;rounded=0;orthogonalLoop=1;jettySize=auto;html=1;dashed=1;dashPattern=1 1;" parent="1" source="ILpzqOGEgMHz32oO7xNn-51" target="ILpzqOGEgMHz32oO7xNn-123" edge="1">
          <mxGeometry relative="1" as="geometry" />
        </mxCell>
        <mxCell id="ILpzqOGEgMHz32oO7xNn-51" value="Search&lt;div&gt;Service&lt;/div&gt;" style="rounded=1;whiteSpace=wrap;html=1;fillColor=#f5f5f5;strokeColor=#666666;gradientColor=#b3b3b3;" parent="1" vertex="1">
          <mxGeometry x="290" y="61" width="95" height="53" as="geometry" />
        </mxCell>
        <mxCell id="ILpzqOGEgMHz32oO7xNn-55" value="" style="rounded=1;whiteSpace=wrap;html=1;fillColor=#cdeb8b;strokeColor=#36393d;shadow=1;" parent="1" vertex="1">
          <mxGeometry x="558.5" y="190" width="95" height="53" as="geometry" />
        </mxCell>
        <mxCell id="ILpzqOGEgMHz32oO7xNn-56" value="Inventory&lt;div&gt;Service&lt;/div&gt;" style="rounded=1;whiteSpace=wrap;html=1;fillColor=#cdeb8b;strokeColor=#36393d;gradientColor=none;shadow=1;" parent="1" vertex="1">
          <mxGeometry x="564.5" y="196" width="95" height="53" as="geometry" />
        </mxCell>
        <mxCell id="ILpzqOGEgMHz32oO7xNn-57" value="SQL&amp;nbsp;" style="shape=cylinder3;whiteSpace=wrap;html=1;boundedLbl=1;backgroundOutline=1;size=15;rounded=0;fillColor=#f5f5f5;strokeColor=#666666;gradientColor=#b3b3b3;" parent="1" vertex="1">
          <mxGeometry x="689.5" y="180.5" width="50.5" height="73" as="geometry" />
        </mxCell>
        <mxCell id="KnMCrY_Kx2zRuAthfWW4-38" style="edgeStyle=orthogonalEdgeStyle;rounded=0;orthogonalLoop=1;jettySize=auto;html=1;exitX=1;exitY=0.5;exitDx=0;exitDy=0;entryX=0.5;entryY=0;entryDx=0;entryDy=0;strokeColor=#B20000;dashed=1;" parent="1" source="ILpzqOGEgMHz32oO7xNn-94" target="3KepqCRreSBxK8r_iUo3-4" edge="1">
          <mxGeometry relative="1" as="geometry">
            <Array as="points">
              <mxPoint x="863" y="722" />
              <mxPoint x="152" y="722" />
            </Array>
          </mxGeometry>
        </mxCell>
        <mxCell id="KnMCrY_Kx2zRuAthfWW4-56" style="edgeStyle=orthogonalEdgeStyle;rounded=0;orthogonalLoop=1;jettySize=auto;html=1;exitX=0;exitY=0.25;exitDx=0;exitDy=0;dashed=1;strokeColor=#B20000;" parent="1" source="ILpzqOGEgMHz32oO7xNn-94" target="hqVNRMzppCiJ99_KFiAW-115" edge="1">
          <mxGeometry relative="1" as="geometry">
            <Array as="points">
              <mxPoint x="874" y="16" />
              <mxPoint x="188" y="16" />
              <mxPoint x="188" y="59" />
              <mxPoint x="46" y="59" />
              <mxPoint x="46" y="160" />
            </Array>
          </mxGeometry>
        </mxCell>
        <mxCell id="ILpzqOGEgMHz32oO7xNn-94" value="&lt;font style=&quot;font-size: 9px;&quot;&gt;Event Bus&lt;/font&gt;" style="rounded=1;whiteSpace=wrap;html=1;direction=south;fillColor=#BF9F9E;strokeColor=#5C4C4C;shadow=1;gradientDirection=east;fontColor=#000000;gradientColor=none;" parent="1" vertex="1">
          <mxGeometry x="841.5" y="173" width="43" height="381" as="geometry" />
        </mxCell>
        <mxCell id="ILpzqOGEgMHz32oO7xNn-121" value="SQL&amp;nbsp;" style="shape=cylinder3;whiteSpace=wrap;html=1;boundedLbl=1;backgroundOutline=1;size=15;rounded=0;fillColor=#f5f5f5;strokeColor=#666666;gradientColor=#b3b3b3;" parent="1" vertex="1">
          <mxGeometry x="696.5" y="187.5" width="49.5" height="68" as="geometry" />
        </mxCell>
        <mxCell id="ILpzqOGEgMHz32oO7xNn-123" value="&lt;font color=&quot;#000000&quot;&gt;Elastic&amp;nbsp;&lt;/font&gt;" style="shape=cylinder3;whiteSpace=wrap;html=1;boundedLbl=1;backgroundOutline=1;size=15;rounded=0;fillColor=#CCCCFF;fontColor=#ffffff;strokeColor=#000000;" parent="1" vertex="1">
          <mxGeometry x="420" y="52" width="48" height="72" as="geometry" />
        </mxCell>
        <mxCell id="ILpzqOGEgMHz32oO7xNn-143" value="Private network" style="text;html=1;align=center;verticalAlign=middle;resizable=0;points=[];autosize=1;strokeColor=none;fillColor=none;fontSize=11;rounded=0;" parent="1" vertex="1">
          <mxGeometry x="81" y="6" width="94" height="25" as="geometry" />
        </mxCell>
        <mxCell id="ILpzqOGEgMHz32oO7xNn-145" value="&lt;font style=&quot;font-size: 11px;&quot;&gt;Public network&lt;/font&gt;" style="text;html=1;align=center;verticalAlign=middle;resizable=0;points=[];autosize=1;strokeColor=none;fillColor=none;fontSize=16;rounded=0;" parent="1" vertex="1">
          <mxGeometry x="-303" y="253" width="90" height="31" as="geometry" />
        </mxCell>
        <mxCell id="ILpzqOGEgMHz32oO7xNn-146" style="edgeStyle=none;curved=0;rounded=0;orthogonalLoop=1;jettySize=auto;html=1;exitX=0;exitY=0.5;exitDx=0;exitDy=0;entryX=0;entryY=0.5;entryDx=0;entryDy=0;fontSize=12;startSize=8;endSize=8;fillColor=#008a00;strokeColor=#005700;" parent="1" edge="1">
          <mxGeometry relative="1" as="geometry">
            <mxPoint x="-145" y="622.75" as="sourcePoint" />
            <mxPoint x="-17" y="619.25" as="targetPoint" />
            <Array as="points" />
          </mxGeometry>
        </mxCell>
        <mxCell id="ILpzqOGEgMHz32oO7xNn-147" value="Synchronous - https/Rest" style="text;html=1;align=center;verticalAlign=middle;resizable=0;points=[];autosize=1;" parent="1" vertex="1">
          <mxGeometry x="-317" y="610" width="153" height="26" as="geometry" />
        </mxCell>
        <mxCell id="ILpzqOGEgMHz32oO7xNn-150" style="edgeStyle=none;curved=0;rounded=0;orthogonalLoop=1;jettySize=auto;html=1;entryX=1.006;entryY=0.378;entryDx=0;entryDy=0;entryPerimeter=0;fontSize=12;startSize=8;endSize=8;fillColor=#e51400;strokeColor=#B20000;dashed=1;" parent="1" edge="1">
          <mxGeometry relative="1" as="geometry">
            <mxPoint x="-136" y="677.5" as="sourcePoint" />
            <mxPoint x="-5" y="677.5" as="targetPoint" />
            <Array as="points" />
          </mxGeometry>
        </mxCell>
        <mxCell id="ILpzqOGEgMHz32oO7xNn-151" value="Asynchronous - Event driven" style="text;html=1;align=center;verticalAlign=middle;resizable=0;points=[];autosize=1;strokeColor=none;fillColor=none;" parent="1" vertex="1">
          <mxGeometry x="-315.75" y="669.5" width="171" height="26" as="geometry" />
        </mxCell>
        <mxCell id="ILpzqOGEgMHz32oO7xNn-157" value="" style="endArrow=classic;html=1;rounded=0;fillColor=#e3c800;strokeColor=#7D6A00;" parent="1" edge="1">
          <mxGeometry width="50" height="50" relative="1" as="geometry">
            <mxPoint x="-145" y="650.5" as="sourcePoint" />
            <mxPoint x="-19" y="647.5" as="targetPoint" />
          </mxGeometry>
        </mxCell>
        <mxCell id="ILpzqOGEgMHz32oO7xNn-158" value="Synchronous - grpc" style="text;html=1;align=center;verticalAlign=middle;resizable=0;points=[];autosize=1;strokeColor=none;fillColor=none;" parent="1" vertex="1">
          <mxGeometry x="-315" y="640" width="122" height="26" as="geometry" />
        </mxCell>
        <mxCell id="hqVNRMzppCiJ99_KFiAW-14" style="edgeStyle=orthogonalEdgeStyle;rounded=0;orthogonalLoop=1;jettySize=auto;html=1;exitX=1;exitY=0.5;exitDx=0;exitDy=0;entryX=0;entryY=0.5;entryDx=0;entryDy=0;entryPerimeter=0;dashed=1;dashPattern=1 1;" parent="1" source="ILpzqOGEgMHz32oO7xNn-56" target="ILpzqOGEgMHz32oO7xNn-121" edge="1">
          <mxGeometry relative="1" as="geometry" />
        </mxCell>
        <mxCell id="hqVNRMzppCiJ99_KFiAW-19" value="" style="rounded=1;whiteSpace=wrap;html=1;textShadow=0;strokeColor=default;dashed=1;fillColor=#F7E3EE;shadow=1;" parent="1" vertex="1">
          <mxGeometry x="261" y="311.5" width="229" height="103" as="geometry" />
        </mxCell>
        <mxCell id="hqVNRMzppCiJ99_KFiAW-20" value="" style="rounded=1;whiteSpace=wrap;html=1;fillColor=#d5e8d4;strokeColor=#090D07;gradientColor=#97d077;shadow=1;" parent="1" vertex="1">
          <mxGeometry x="279.5" y="328.5" width="95" height="53" as="geometry" />
        </mxCell>
        <mxCell id="hqVNRMzppCiJ99_KFiAW-21" value="NoSQL&amp;nbsp;" style="shape=cylinder3;whiteSpace=wrap;html=1;boundedLbl=1;backgroundOutline=1;size=15;rounded=0;fillColor=#FF99CC;strokeColor=#660033;gradientColor=#CC0066;gradientDirection=north;" parent="1" vertex="1">
          <mxGeometry x="412.5" y="324.5" width="56" height="72" as="geometry" />
        </mxCell>
        <mxCell id="hqVNRMzppCiJ99_KFiAW-22" value="" style="rounded=1;whiteSpace=wrap;html=1;fillColor=#d5e8d4;strokeColor=#090D07;gradientColor=#97d077;shadow=1;" parent="1" vertex="1">
          <mxGeometry x="284.5" y="336.5" width="95" height="53" as="geometry" />
        </mxCell>
        <mxCell id="hqVNRMzppCiJ99_KFiAW-23" value="Cart&lt;div&gt;&lt;span style=&quot;background-color: initial;&quot;&gt;Service&lt;/span&gt;&lt;/div&gt;" style="rounded=1;whiteSpace=wrap;html=1;fillColor=#d5e8d4;gradientColor=#97d077;strokeColor=#090D07;shadow=1;" parent="1" vertex="1">
          <mxGeometry x="290.5" y="342.5" width="95" height="53" as="geometry" />
        </mxCell>
        <mxCell id="hqVNRMzppCiJ99_KFiAW-24" value="&lt;font color=&quot;#000000&quot;&gt;KV&amp;nbsp;&lt;/font&gt;&lt;div&gt;&lt;font color=&quot;#000000&quot;&gt;Store&lt;/font&gt;&lt;/div&gt;" style="shape=cylinder3;whiteSpace=wrap;html=1;boundedLbl=1;backgroundOutline=1;size=15;rounded=0;fillColor=#FF99CC;strokeColor=#660033;fontColor=#000000;gradientDirection=north;gradientColor=#CC0066;" parent="1" vertex="1">
          <mxGeometry x="420.5" y="333.5" width="52" height="71" as="geometry" />
        </mxCell>
        <mxCell id="hqVNRMzppCiJ99_KFiAW-28" style="edgeStyle=orthogonalEdgeStyle;rounded=0;orthogonalLoop=1;jettySize=auto;html=1;exitX=1;exitY=0.5;exitDx=0;exitDy=0;entryX=0;entryY=0.5;entryDx=0;entryDy=0;entryPerimeter=0;dashed=1;dashPattern=1 1;" parent="1" source="hqVNRMzppCiJ99_KFiAW-23" target="hqVNRMzppCiJ99_KFiAW-24" edge="1">
          <mxGeometry relative="1" as="geometry" />
        </mxCell>
        <mxCell id="hqVNRMzppCiJ99_KFiAW-30" value="" style="rounded=1;whiteSpace=wrap;html=1;textShadow=0;strokeColor=default;dashed=1;fillColor=#F7E3EE;shadow=1;" parent="1" vertex="1">
          <mxGeometry x="266.75" y="171.5" width="223.5" height="96" as="geometry" />
        </mxCell>
        <mxCell id="hqVNRMzppCiJ99_KFiAW-31" value="" style="rounded=1;whiteSpace=wrap;html=1;fillColor=#b0e3e6;strokeColor=#0e8088;shadow=1;" parent="1" vertex="1">
          <mxGeometry x="281.25" y="187.5" width="95" height="53" as="geometry" />
        </mxCell>
        <mxCell id="hqVNRMzppCiJ99_KFiAW-32" value="NoSQL&amp;nbsp;" style="shape=cylinder3;whiteSpace=wrap;html=1;boundedLbl=1;backgroundOutline=1;size=15;rounded=0;fillColor=#f5f5f5;strokeColor=#666666;gradientColor=#b3b3b3;" parent="1" vertex="1">
          <mxGeometry x="417.25" y="182" width="56" height="72" as="geometry" />
        </mxCell>
        <mxCell id="hqVNRMzppCiJ99_KFiAW-33" value="" style="rounded=1;whiteSpace=wrap;html=1;fillColor=#b0e3e6;strokeColor=#0e8088;shadow=1;" parent="1" vertex="1">
          <mxGeometry x="289.25" y="194" width="95" height="53" as="geometry" />
        </mxCell>
        <mxCell id="hqVNRMzppCiJ99_KFiAW-34" value="Order&lt;div&gt;&lt;span style=&quot;background-color: initial;&quot;&gt;Service&lt;/span&gt;&lt;/div&gt;" style="rounded=1;whiteSpace=wrap;html=1;fillColor=#b0e3e6;strokeColor=#0e8088;shadow=1;" parent="1" vertex="1">
          <mxGeometry x="295.25" y="200" width="95" height="53" as="geometry" />
        </mxCell>
        <mxCell id="hqVNRMzppCiJ99_KFiAW-35" value="SQL" style="shape=cylinder3;whiteSpace=wrap;html=1;boundedLbl=1;backgroundOutline=1;size=15;rounded=0;fillColor=#f5f5f5;strokeColor=#666666;gradientColor=#b3b3b3;" parent="1" vertex="1">
          <mxGeometry x="425.25" y="191" width="52" height="71" as="geometry" />
        </mxCell>
        <mxCell id="hqVNRMzppCiJ99_KFiAW-40" style="edgeStyle=orthogonalEdgeStyle;rounded=0;orthogonalLoop=1;jettySize=auto;html=1;exitX=1;exitY=0.5;exitDx=0;exitDy=0;entryX=0;entryY=0.5;entryDx=0;entryDy=0;entryPerimeter=0;dashed=1;dashPattern=1 1;" parent="1" source="hqVNRMzppCiJ99_KFiAW-34" target="hqVNRMzppCiJ99_KFiAW-35" edge="1">
          <mxGeometry relative="1" as="geometry" />
        </mxCell>
        <mxCell id="hqVNRMzppCiJ99_KFiAW-50" value="" style="rounded=1;whiteSpace=wrap;html=1;textShadow=0;strokeColor=default;dashed=1;fillColor=#F7E3EE;shadow=1;" parent="1" vertex="1">
          <mxGeometry x="533" y="308.5" width="226" height="104" as="geometry" />
        </mxCell>
        <mxCell id="hqVNRMzppCiJ99_KFiAW-51" value="" style="rounded=1;whiteSpace=wrap;html=1;fillColor=#dae8fc;strokeColor=#6c8ebf;gradientColor=#7ea6e0;shadow=1;" parent="1" vertex="1">
          <mxGeometry x="548.5" y="327.5" width="95" height="53" as="geometry" />
        </mxCell>
        <mxCell id="hqVNRMzppCiJ99_KFiAW-52" value="NoSQL&amp;nbsp;" style="shape=cylinder3;whiteSpace=wrap;html=1;boundedLbl=1;backgroundOutline=1;size=15;rounded=0;fillColor=#f5f5f5;strokeColor=#666666;gradientColor=#b3b3b3;" parent="1" vertex="1">
          <mxGeometry x="681.5" y="322.5" width="56" height="72" as="geometry" />
        </mxCell>
        <mxCell id="hqVNRMzppCiJ99_KFiAW-53" value="" style="rounded=1;whiteSpace=wrap;html=1;fillColor=#dae8fc;strokeColor=#6c8ebf;gradientColor=#7ea6e0;shadow=1;" parent="1" vertex="1">
          <mxGeometry x="553.5" y="334.5" width="95" height="53" as="geometry" />
        </mxCell>
        <mxCell id="hqVNRMzppCiJ99_KFiAW-54" value="Discount&lt;div&gt;&lt;span style=&quot;background-color: initial;&quot;&gt;Service&lt;/span&gt;&lt;/div&gt;" style="rounded=1;whiteSpace=wrap;html=1;fillColor=#dae8fc;gradientColor=#7ea6e0;strokeColor=#6c8ebf;shadow=1;" parent="1" vertex="1">
          <mxGeometry x="559.5" y="340.5" width="95" height="53" as="geometry" />
        </mxCell>
        <mxCell id="hqVNRMzppCiJ99_KFiAW-55" value="SQL" style="shape=cylinder3;whiteSpace=wrap;html=1;boundedLbl=1;backgroundOutline=1;size=15;rounded=0;fillColor=#f5f5f5;strokeColor=#666666;gradientColor=#b3b3b3;" parent="1" vertex="1">
          <mxGeometry x="689.5" y="331.5" width="52" height="71" as="geometry" />
        </mxCell>
        <mxCell id="KnMCrY_Kx2zRuAthfWW4-42" style="edgeStyle=orthogonalEdgeStyle;rounded=0;orthogonalLoop=1;jettySize=auto;html=1;exitX=0.75;exitY=1;exitDx=0;exitDy=0;entryX=0.75;entryY=1;entryDx=0;entryDy=0;dashed=1;strokeColor=#B20000;" parent="1" source="hqVNRMzppCiJ99_KFiAW-59" target="ILpzqOGEgMHz32oO7xNn-94" edge="1">
          <mxGeometry relative="1" as="geometry">
            <Array as="points">
              <mxPoint x="432" y="576" />
              <mxPoint x="796" y="576" />
              <mxPoint x="796" y="459" />
            </Array>
          </mxGeometry>
        </mxCell>
        <mxCell id="hqVNRMzppCiJ99_KFiAW-59" value="" style="rounded=1;whiteSpace=wrap;html=1;textShadow=0;strokeColor=default;dashed=1;fillColor=#F7E3EE;shadow=1;" parent="1" vertex="1">
          <mxGeometry x="261" y="455" width="228" height="101" as="geometry" />
        </mxCell>
        <mxCell id="hqVNRMzppCiJ99_KFiAW-60" value="" style="rounded=1;whiteSpace=wrap;html=1;fillColor=#e1d5e7;strokeColor=#9673a6;gradientColor=#756F78;shadow=1;" parent="1" vertex="1">
          <mxGeometry x="274" y="471" width="95" height="53" as="geometry" />
        </mxCell>
        <mxCell id="hqVNRMzppCiJ99_KFiAW-61" value="NoSQL&amp;nbsp;" style="shape=cylinder3;whiteSpace=wrap;html=1;boundedLbl=1;backgroundOutline=1;size=15;rounded=0;fillColor=#f5f5f5;strokeColor=#666666;gradientColor=#b3b3b3;" parent="1" vertex="1">
          <mxGeometry x="410" y="466" width="56" height="72" as="geometry" />
        </mxCell>
        <mxCell id="hqVNRMzppCiJ99_KFiAW-62" value="" style="rounded=1;whiteSpace=wrap;html=1;fillColor=#e1d5e7;strokeColor=#9673a6;gradientColor=#756F78;shadow=1;" parent="1" vertex="1">
          <mxGeometry x="279" y="478" width="95" height="53" as="geometry" />
        </mxCell>
        <mxCell id="hqVNRMzppCiJ99_KFiAW-63" value="Payment&lt;div&gt;&lt;span style=&quot;background-color: initial;&quot;&gt;Service&lt;/span&gt;&lt;/div&gt;" style="rounded=1;whiteSpace=wrap;html=1;fillColor=#e1d5e7;strokeColor=#9673a6;gradientColor=#756F78;shadow=1;" parent="1" vertex="1">
          <mxGeometry x="285" y="484" width="95" height="53" as="geometry" />
        </mxCell>
        <mxCell id="hqVNRMzppCiJ99_KFiAW-64" value="SQL" style="shape=cylinder3;whiteSpace=wrap;html=1;boundedLbl=1;backgroundOutline=1;size=15;rounded=0;fillColor=#f5f5f5;strokeColor=#666666;gradientColor=#b3b3b3;" parent="1" vertex="1">
          <mxGeometry x="418" y="475" width="52" height="71" as="geometry" />
        </mxCell>
        <mxCell id="hqVNRMzppCiJ99_KFiAW-70" style="edgeStyle=orthogonalEdgeStyle;rounded=0;orthogonalLoop=1;jettySize=auto;html=1;exitX=1;exitY=0.5;exitDx=0;exitDy=0;entryX=0;entryY=0.5;entryDx=0;entryDy=0;entryPerimeter=0;dashed=1;dashPattern=1 1;" parent="1" source="hqVNRMzppCiJ99_KFiAW-54" target="hqVNRMzppCiJ99_KFiAW-55" edge="1">
          <mxGeometry relative="1" as="geometry" />
        </mxCell>
        <mxCell id="hqVNRMzppCiJ99_KFiAW-73" style="edgeStyle=orthogonalEdgeStyle;rounded=0;orthogonalLoop=1;jettySize=auto;html=1;exitX=1;exitY=0.5;exitDx=0;exitDy=0;entryX=0;entryY=0.5;entryDx=0;entryDy=0;entryPerimeter=0;dashed=1;dashPattern=1 1;" parent="1" source="hqVNRMzppCiJ99_KFiAW-63" target="hqVNRMzppCiJ99_KFiAW-64" edge="1">
          <mxGeometry relative="1" as="geometry" />
        </mxCell>
        <mxCell id="hqVNRMzppCiJ99_KFiAW-74" value="" style="rounded=1;whiteSpace=wrap;html=1;textShadow=0;strokeColor=default;dashed=1;fillColor=#F7E3EE;shadow=1;" parent="1" vertex="1">
          <mxGeometry x="257" y="608" width="233" height="97" as="geometry" />
        </mxCell>
        <mxCell id="hqVNRMzppCiJ99_KFiAW-75" value="" style="rounded=1;whiteSpace=wrap;html=1;fillColor=#E6FFCC;strokeColor=#2D7600;gradientColor=#636363;shadow=1;" parent="1" vertex="1">
          <mxGeometry x="278" y="622" width="95" height="53" as="geometry" />
        </mxCell>
        <mxCell id="hqVNRMzppCiJ99_KFiAW-76" value="NoSQL&amp;nbsp;" style="shape=cylinder3;whiteSpace=wrap;html=1;boundedLbl=1;backgroundOutline=1;size=15;rounded=0;fillColor=#f5f5f5;strokeColor=#666666;gradientColor=#b3b3b3;" parent="1" vertex="1">
          <mxGeometry x="417" y="617" width="56" height="72" as="geometry" />
        </mxCell>
        <mxCell id="hqVNRMzppCiJ99_KFiAW-77" value="" style="rounded=1;whiteSpace=wrap;html=1;fillColor=#E6FFCC;strokeColor=#2D7600;fontColor=#ffffff;gradientColor=#636363;shadow=1;" parent="1" vertex="1">
          <mxGeometry x="283" y="629" width="95" height="53" as="geometry" />
        </mxCell>
        <mxCell id="hqVNRMzppCiJ99_KFiAW-78" value="User&lt;div&gt;&lt;span style=&quot;background-color: initial;&quot;&gt;Service&lt;/span&gt;&lt;/div&gt;" style="rounded=1;whiteSpace=wrap;html=1;fillColor=#E6FFCC;strokeColor=#2D7600;fontColor=#000000;gradientColor=#636363;shadow=1;" parent="1" vertex="1">
          <mxGeometry x="289" y="635" width="95" height="53" as="geometry" />
        </mxCell>
        <mxCell id="hqVNRMzppCiJ99_KFiAW-79" value="SQL" style="shape=cylinder3;whiteSpace=wrap;html=1;boundedLbl=1;backgroundOutline=1;size=15;rounded=0;fillColor=#f5f5f5;strokeColor=#666666;gradientColor=#b3b3b3;" parent="1" vertex="1">
          <mxGeometry x="425" y="626" width="52" height="71" as="geometry" />
        </mxCell>
        <mxCell id="hqVNRMzppCiJ99_KFiAW-83" value="" style="rounded=1;whiteSpace=wrap;html=1;textShadow=0;strokeColor=default;dashed=1;fillColor=#F7E3EE;shadow=1;" parent="1" vertex="1">
          <mxGeometry x="530" y="455" width="222" height="101" as="geometry" />
        </mxCell>
        <mxCell id="hqVNRMzppCiJ99_KFiAW-84" value="" style="rounded=1;whiteSpace=wrap;html=1;fillColor=#fad9d5;strokeColor=#ae4132;gradientColor=#EA6B66;shadow=1;" parent="1" vertex="1">
          <mxGeometry x="546" y="470" width="95" height="53" as="geometry" />
        </mxCell>
        <mxCell id="hqVNRMzppCiJ99_KFiAW-85" value="NoSQL&amp;nbsp;" style="shape=cylinder3;whiteSpace=wrap;html=1;boundedLbl=1;backgroundOutline=1;size=15;rounded=0;fillColor=#f5f5f5;strokeColor=#666666;gradientColor=#b3b3b3;" parent="1" vertex="1">
          <mxGeometry x="679" y="465" width="56" height="72" as="geometry" />
        </mxCell>
        <mxCell id="hqVNRMzppCiJ99_KFiAW-86" value="" style="rounded=1;whiteSpace=wrap;html=1;fillColor=#fad9d5;strokeColor=#ae4132;gradientColor=#EA6B66;shadow=1;" parent="1" vertex="1">
          <mxGeometry x="551" y="477" width="95" height="53" as="geometry" />
        </mxCell>
        <mxCell id="hqVNRMzppCiJ99_KFiAW-87" value="Shipping&lt;div&gt;&lt;span style=&quot;background-color: initial;&quot;&gt;Service&lt;/span&gt;&lt;/div&gt;" style="rounded=1;whiteSpace=wrap;html=1;fillColor=#fad9d5;strokeColor=#ae4132;gradientColor=#EA6B66;shadow=1;" parent="1" vertex="1">
          <mxGeometry x="557" y="483" width="95" height="53" as="geometry" />
        </mxCell>
        <mxCell id="hqVNRMzppCiJ99_KFiAW-88" value="SQL" style="shape=cylinder3;whiteSpace=wrap;html=1;boundedLbl=1;backgroundOutline=1;size=15;rounded=0;fillColor=#f5f5f5;strokeColor=#666666;gradientColor=#b3b3b3;" parent="1" vertex="1">
          <mxGeometry x="687" y="474" width="52" height="71" as="geometry" />
        </mxCell>
        <mxCell id="hqVNRMzppCiJ99_KFiAW-94" style="edgeStyle=orthogonalEdgeStyle;rounded=0;orthogonalLoop=1;jettySize=auto;html=1;exitX=1;exitY=0.5;exitDx=0;exitDy=0;entryX=0;entryY=0.5;entryDx=0;entryDy=0;entryPerimeter=0;dashed=1;dashPattern=1 1;" parent="1" source="hqVNRMzppCiJ99_KFiAW-87" target="hqVNRMzppCiJ99_KFiAW-88" edge="1">
          <mxGeometry relative="1" as="geometry" />
        </mxCell>
        <mxCell id="hqVNRMzppCiJ99_KFiAW-95" style="edgeStyle=orthogonalEdgeStyle;rounded=0;orthogonalLoop=1;jettySize=auto;html=1;exitX=1;exitY=0.5;exitDx=0;exitDy=0;entryX=0;entryY=0.5;entryDx=0;entryDy=0;entryPerimeter=0;dashed=1;dashPattern=1 1;" parent="1" source="hqVNRMzppCiJ99_KFiAW-78" target="hqVNRMzppCiJ99_KFiAW-79" edge="1">
          <mxGeometry relative="1" as="geometry" />
        </mxCell>
        <mxCell id="KnMCrY_Kx2zRuAthfWW4-8" style="edgeStyle=orthogonalEdgeStyle;rounded=0;orthogonalLoop=1;jettySize=auto;html=1;exitX=1;exitY=0.5;exitDx=0;exitDy=0;entryX=0;entryY=0.5;entryDx=0;entryDy=0;strokeColor=#B20000;dashed=1;" parent="1" source="hqVNRMzppCiJ99_KFiAW-97" target="ILpzqOGEgMHz32oO7xNn-94" edge="1">
          <mxGeometry relative="1" as="geometry" />
        </mxCell>
        <mxCell id="hqVNRMzppCiJ99_KFiAW-97" value="" style="rounded=1;whiteSpace=wrap;html=1;textShadow=0;strokeColor=default;dashed=1;fillColor=#F7E3EE;shadow=1;" parent="1" vertex="1">
          <mxGeometry x="527" y="31" width="233" height="104" as="geometry" />
        </mxCell>
        <mxCell id="hqVNRMzppCiJ99_KFiAW-98" value="" style="rounded=1;whiteSpace=wrap;html=1;fillColor=#e6d0de;gradientColor=#d5739d;strokeColor=#996185;" parent="1" vertex="1">
          <mxGeometry x="544.25" y="50" width="95" height="53" as="geometry" />
        </mxCell>
        <mxCell id="hqVNRMzppCiJ99_KFiAW-99" value="NoSQL&amp;nbsp;" style="shape=cylinder3;whiteSpace=wrap;html=1;boundedLbl=1;backgroundOutline=1;size=15;rounded=0;fillColor=#fad7ac;strokeColor=#b46504;" parent="1" vertex="1">
          <mxGeometry x="679.25" y="45" width="56" height="72" as="geometry" />
        </mxCell>
        <mxCell id="hqVNRMzppCiJ99_KFiAW-100" value="" style="rounded=1;whiteSpace=wrap;html=1;fillColor=#e6d0de;gradientColor=#d5739d;strokeColor=#996185;" parent="1" vertex="1">
          <mxGeometry x="549.25" y="57" width="95" height="53" as="geometry" />
        </mxCell>
        <mxCell id="hqVNRMzppCiJ99_KFiAW-101" value="Product&lt;div&gt;&lt;span style=&quot;background-color: initial;&quot;&gt;Service&lt;/span&gt;&lt;/div&gt;" style="rounded=1;whiteSpace=wrap;html=1;fillColor=#e6d0de;gradientColor=#d5739d;strokeColor=#996185;" parent="1" vertex="1">
          <mxGeometry x="555.25" y="63" width="95" height="53" as="geometry" />
        </mxCell>
        <mxCell id="hqVNRMzppCiJ99_KFiAW-102" value="Document&lt;div&gt;NoSQL&amp;nbsp;&lt;/div&gt;" style="shape=cylinder3;whiteSpace=wrap;html=1;boundedLbl=1;backgroundOutline=1;size=15;rounded=0;fillColor=#fad7ac;strokeColor=#b46504;" parent="1" vertex="1">
          <mxGeometry x="687.25" y="54" width="57" height="71" as="geometry" />
        </mxCell>
        <mxCell id="hqVNRMzppCiJ99_KFiAW-106" style="edgeStyle=orthogonalEdgeStyle;rounded=0;orthogonalLoop=1;jettySize=auto;html=1;exitX=1;exitY=0.5;exitDx=0;exitDy=0;entryX=0;entryY=0.5;entryDx=0;entryDy=0;entryPerimeter=0;dashed=1;dashPattern=1 1;" parent="1" source="hqVNRMzppCiJ99_KFiAW-101" target="hqVNRMzppCiJ99_KFiAW-102" edge="1">
          <mxGeometry relative="1" as="geometry" />
        </mxCell>
        <mxCell id="hqVNRMzppCiJ99_KFiAW-109" value="Sync Products" style="text;html=1;align=center;verticalAlign=middle;resizable=0;points=[];autosize=1;strokeColor=none;fillColor=none;fontSize=11;rounded=0;rotation=0;" parent="1" vertex="1">
          <mxGeometry x="159" y="116" width="89" height="25" as="geometry" />
        </mxCell>
        <mxCell id="hqVNRMzppCiJ99_KFiAW-110" value="Cross cutting concerns" style="text;html=1;align=center;verticalAlign=middle;resizable=0;points=[];autosize=1;strokeColor=none;fillColor=none;fontSize=10;rounded=0;" parent="1" vertex="1">
          <mxGeometry x="-179.5" y="23" width="120" height="24" as="geometry" />
        </mxCell>
        <mxCell id="hqVNRMzppCiJ99_KFiAW-111" value="Auth&lt;div&gt;&amp;amp;&lt;/div&gt;&lt;div&gt;Auth&lt;/div&gt;" style="whiteSpace=wrap;html=1;aspect=fixed;rounded=1;shadow=1;fillColor=#FFF0F1;gradientColor=#FF7AAF;gradientDirection=west;" parent="1" vertex="1">
          <mxGeometry x="-158.75" y="47.5" width="69.5" height="69.5" as="geometry" />
        </mxCell>
        <mxCell id="hqVNRMzppCiJ99_KFiAW-114" value="Caching" style="whiteSpace=wrap;html=1;aspect=fixed;rounded=1;shadow=1;fillColor=#EBFCFF;gradientColor=#21FFA6;gradientDirection=west;" parent="1" vertex="1">
          <mxGeometry x="-79.5" y="49" width="66" height="66" as="geometry" />
        </mxCell>
        <mxCell id="hqVNRMzppCiJ99_KFiAW-115" value="Logging" style="whiteSpace=wrap;html=1;aspect=fixed;rounded=1;glass=0;shadow=1;fillColor=#FFDED6;gradientColor=#FF9457;gradientDirection=west;" parent="1" vertex="1">
          <mxGeometry x="-79" y="126" width="67.5" height="67.5" as="geometry" />
        </mxCell>
        <mxCell id="hqVNRMzppCiJ99_KFiAW-152" value="Add/ Update/&amp;nbsp;&lt;div&gt;Delete&amp;nbsp;&lt;span style=&quot;background-color: initial;&quot;&gt;Products&lt;/span&gt;&lt;/div&gt;" style="text;html=1;align=center;verticalAlign=middle;resizable=0;points=[];autosize=1;strokeColor=none;fillColor=none;fontSize=11;rounded=0;rotation=0;" parent="1" vertex="1">
          <mxGeometry x="772" y="45" width="96" height="38" as="geometry" />
        </mxCell>
        <mxCell id="hqVNRMzppCiJ99_KFiAW-157" value="Order Placed" style="text;html=1;align=center;verticalAlign=middle;resizable=0;points=[];autosize=1;strokeColor=none;fillColor=none;fontSize=11;rounded=0;rotation=0;" parent="1" vertex="1">
          <mxGeometry x="758.5" y="286" width="83" height="25" as="geometry" />
        </mxCell>
        <mxCell id="hqVNRMzppCiJ99_KFiAW-160" value="Update Payment Status" style="text;html=1;align=center;verticalAlign=middle;resizable=0;points=[];autosize=1;strokeColor=none;fillColor=none;fontSize=11;rounded=0;rotation=270;" parent="1" vertex="1">
          <mxGeometry x="717" y="499" width="134" height="25" as="geometry" />
        </mxCell>
        <mxCell id="hqVNRMzppCiJ99_KFiAW-162" value="Update&lt;div&gt;&lt;span style=&quot;background-color: initial;&quot;&gt;Order&lt;/span&gt;&lt;/div&gt;" style="text;html=1;align=center;verticalAlign=middle;resizable=0;points=[];autosize=1;strokeColor=none;fillColor=none;fontSize=11;rounded=0;rotation=0;" parent="1" vertex="1">
          <mxGeometry x="209.5" y="165" width="53" height="38" as="geometry" />
        </mxCell>
        <mxCell id="hqVNRMzppCiJ99_KFiAW-165" value="Ship&amp;nbsp;&lt;span style=&quot;background-color: initial;&quot;&gt;Order&lt;/span&gt;" style="text;html=1;align=center;verticalAlign=middle;resizable=0;points=[];autosize=1;strokeColor=none;fillColor=none;fontSize=11;rounded=0;rotation=0;" parent="1" vertex="1">
          <mxGeometry x="327" y="570" width="71" height="25" as="geometry" />
        </mxCell>
        <mxCell id="hqVNRMzppCiJ99_KFiAW-209" value="Check&lt;div style=&quot;font-size: 9px;&quot;&gt;&amp;nbsp;&lt;span style=&quot;background-color: initial; font-size: 9px;&quot;&gt;Inventory&lt;/span&gt;&lt;/div&gt;" style="text;html=1;align=center;verticalAlign=middle;resizable=0;points=[];autosize=1;strokeColor=none;fillColor=none;fontSize=9;rounded=0;rotation=0;" parent="1" vertex="1">
          <mxGeometry x="481" y="163" width="58" height="34" as="geometry" />
        </mxCell>
        <mxCell id="hqVNRMzppCiJ99_KFiAW-217" value="Blob&amp;nbsp;&lt;div&gt;Storage&lt;/div&gt;" style="whiteSpace=wrap;html=1;aspect=fixed;fillColor=#F27C44;fontColor=#ffffff;strokeColor=#6D1F00;rounded=1;shadow=1;glass=0;" parent="1" vertex="1">
          <mxGeometry x="-277.5" y="86" width="79" height="79" as="geometry" />
        </mxCell>
        <mxCell id="3KepqCRreSBxK8r_iUo3-3" style="edgeStyle=orthogonalEdgeStyle;rounded=0;orthogonalLoop=1;jettySize=auto;html=1;exitX=1;exitY=0.5;exitDx=0;exitDy=0;entryX=0;entryY=0.5;entryDx=0;entryDy=0;strokeColor=#005700;" parent="1" source="hqVNRMzppCiJ99_KFiAW-222" target="3KepqCRreSBxK8r_iUo3-1" edge="1">
          <mxGeometry relative="1" as="geometry" />
        </mxCell>
        <mxCell id="hqVNRMzppCiJ99_KFiAW-222" value="" style="image;aspect=fixed;perimeter=ellipsePerimeter;html=1;align=center;shadow=0;dashed=0;fontColor=#4277BB;labelBackgroundColor=default;fontSize=12;spacingTop=3;image=img/lib/ibm/users/browser.svg;" parent="1" vertex="1">
          <mxGeometry x="-174.5" y="391.5" width="60" height="60" as="geometry" />
        </mxCell>
        <mxCell id="hqVNRMzppCiJ99_KFiAW-225" value="&lt;font style=&quot;font-size: 11px;&quot;&gt;Ecom Website&lt;/font&gt;" style="text;html=1;align=center;verticalAlign=middle;resizable=0;points=[];autosize=1;strokeColor=none;fillColor=none;fontSize=16;rounded=0;" parent="1" vertex="1">
          <mxGeometry x="-186.5" y="448" width="89" height="31" as="geometry" />
        </mxCell>
        <mxCell id="KnMCrY_Kx2zRuAthfWW4-51" style="edgeStyle=orthogonalEdgeStyle;rounded=0;orthogonalLoop=1;jettySize=auto;html=1;exitX=1;exitY=0.5;exitDx=0;exitDy=0;entryX=1;entryY=0.5;entryDx=0;entryDy=0;strokeColor=#005700;" parent="1" source="3KepqCRreSBxK8r_iUo3-1" target="3KepqCRreSBxK8r_iUo3-4" edge="1">
          <mxGeometry relative="1" as="geometry" />
        </mxCell>
        <mxCell id="KnMCrY_Kx2zRuAthfWW4-55" style="edgeStyle=orthogonalEdgeStyle;rounded=0;orthogonalLoop=1;jettySize=auto;html=1;exitX=0.5;exitY=0;exitDx=0;exitDy=0;entryX=0.5;entryY=1;entryDx=0;entryDy=0;" parent="1" source="3KepqCRreSBxK8r_iUo3-1" target="KnMCrY_Kx2zRuAthfWW4-54" edge="1">
          <mxGeometry relative="1" as="geometry" />
        </mxCell>
        <mxCell id="3KepqCRreSBxK8r_iUo3-1" value="&lt;font style=&quot;font-size: 9px;&quot;&gt;API&lt;/font&gt;&lt;div style=&quot;font-size: 9px;&quot;&gt;&lt;font style=&quot;font-size: 9px;&quot;&gt;GateWay&lt;/font&gt;&lt;/div&gt;" style="rounded=1;whiteSpace=wrap;html=1;fillColor=#dae8fc;strokeColor=#6c8ebf;shadow=1;fontSize=9;gradientColor=#6C737D;" parent="1" vertex="1">
          <mxGeometry x="-49" y="281" width="40" height="173" as="geometry" />
        </mxCell>
        <mxCell id="KnMCrY_Kx2zRuAthfWW4-31" style="edgeStyle=orthogonalEdgeStyle;rounded=0;orthogonalLoop=1;jettySize=auto;html=1;exitX=0;exitY=0.75;exitDx=0;exitDy=0;strokeColor=#005700;" parent="1" source="3KepqCRreSBxK8r_iUo3-4" target="KnMCrY_Kx2zRuAthfWW4-21" edge="1">
          <mxGeometry relative="1" as="geometry">
            <Array as="points">
              <mxPoint x="197" y="271" />
              <mxPoint x="197" y="222" />
            </Array>
          </mxGeometry>
        </mxCell>
        <mxCell id="3KepqCRreSBxK8r_iUo3-4" value="&lt;font style=&quot;font-size: 11px;&quot;&gt;ALB&lt;/font&gt;" style="rounded=1;whiteSpace=wrap;html=1;direction=west;fillColor=#f8cecc;strokeColor=#B09291;shadow=1;gradientColor=none;gradientDirection=north;" parent="1" vertex="1">
          <mxGeometry x="136" y="174" width="33" height="387" as="geometry" />
        </mxCell>
        <mxCell id="KnMCrY_Kx2zRuAthfWW4-1" value="" style="rounded=1;whiteSpace=wrap;html=1;textShadow=0;strokeColor=default;dashed=1;fillColor=#F7E3EE;shadow=1;" parent="1" vertex="1">
          <mxGeometry x="532" y="607.51" width="233" height="97" as="geometry" />
        </mxCell>
        <mxCell id="KnMCrY_Kx2zRuAthfWW4-2" value="" style="rounded=1;whiteSpace=wrap;html=1;fillColor=#CAF1DE;strokeColor=#4B5952;fontColor=#000000;gradientColor=#64786E;gradientDirection=south;shadow=1;" parent="1" vertex="1">
          <mxGeometry x="588.25" y="622" width="99" height="57.25" as="geometry" />
        </mxCell>
        <mxCell id="KnMCrY_Kx2zRuAthfWW4-3" value="" style="rounded=1;whiteSpace=wrap;html=1;fillColor=#CAF1DE;strokeColor=#4B5952;fontColor=#000000;gradientColor=#64786E;gradientDirection=south;shadow=1;" parent="1" vertex="1">
          <mxGeometry x="595" y="629" width="99" height="57.25" as="geometry" />
        </mxCell>
        <mxCell id="KnMCrY_Kx2zRuAthfWW4-4" value="Notification&lt;div&gt;Service&lt;/div&gt;" style="rounded=1;whiteSpace=wrap;html=1;fillColor=#CAF1DE;strokeColor=#4B5952;fontColor=#000000;gradientColor=#64786E;gradientDirection=south;shadow=1;" parent="1" vertex="1">
          <mxGeometry x="602" y="636" width="99" height="57.25" as="geometry" />
        </mxCell>
        <mxCell id="KnMCrY_Kx2zRuAthfWW4-11" style="edgeStyle=orthogonalEdgeStyle;rounded=0;orthogonalLoop=1;jettySize=auto;html=1;exitX=0.75;exitY=1;exitDx=0;exitDy=0;entryX=0.299;entryY=0.988;entryDx=0;entryDy=0;entryPerimeter=0;strokeColor=#B20000;dashed=1;" parent="1" source="hqVNRMzppCiJ99_KFiAW-30" target="ILpzqOGEgMHz32oO7xNn-94" edge="1">
          <mxGeometry relative="1" as="geometry" />
        </mxCell>
        <mxCell id="KnMCrY_Kx2zRuAthfWW4-16" value="" style="verticalLabelPosition=bottom;verticalAlign=top;html=1;shape=mxgraph.basic.half_circle;direction=south;fillColor=#A96E6E;gradientColor=none;" parent="1" vertex="1">
          <mxGeometry x="245" y="56" width="15" height="51" as="geometry" />
        </mxCell>
        <mxCell id="KnMCrY_Kx2zRuAthfWW4-17" style="rounded=0;orthogonalLoop=1;jettySize=auto;html=1;exitX=0.25;exitY=1;exitDx=0;exitDy=0;entryX=0.902;entryY=0.849;entryDx=0;entryDy=0;entryPerimeter=0;strokeColor=#B20000;dashed=1;edgeStyle=orthogonalEdgeStyle;" parent="1" source="3KepqCRreSBxK8r_iUo3-4" target="KnMCrY_Kx2zRuAthfWW4-16" edge="1">
          <mxGeometry relative="1" as="geometry" />
        </mxCell>
        <mxCell id="KnMCrY_Kx2zRuAthfWW4-18" style="edgeStyle=orthogonalEdgeStyle;rounded=0;orthogonalLoop=1;jettySize=auto;html=1;exitX=0.5;exitY=1;exitDx=0;exitDy=0;entryX=0.5;entryY=1;entryDx=0;entryDy=0;entryPerimeter=0;strokeColor=#005700;" parent="1" source="3KepqCRreSBxK8r_iUo3-4" target="KnMCrY_Kx2zRuAthfWW4-16" edge="1">
          <mxGeometry relative="1" as="geometry">
            <Array as="points">
              <mxPoint x="153" y="82" />
              <mxPoint x="245" y="82" />
            </Array>
          </mxGeometry>
        </mxCell>
        <mxCell id="KnMCrY_Kx2zRuAthfWW4-19" value="" style="verticalLabelPosition=bottom;verticalAlign=top;html=1;shape=mxgraph.basic.half_circle;direction=south;fillColor=#A96E6E;gradientColor=none;" parent="1" vertex="1">
          <mxGeometry x="512" y="57.5" width="15" height="51" as="geometry" />
        </mxCell>
        <mxCell id="KnMCrY_Kx2zRuAthfWW4-20" style="edgeStyle=orthogonalEdgeStyle;rounded=0;orthogonalLoop=1;jettySize=auto;html=1;exitX=0;exitY=0.75;exitDx=0;exitDy=0;entryX=0.5;entryY=1;entryDx=0;entryDy=0;entryPerimeter=0;strokeColor=#005700;" parent="1" source="3KepqCRreSBxK8r_iUo3-4" target="KnMCrY_Kx2zRuAthfWW4-19" edge="1">
          <mxGeometry relative="1" as="geometry">
            <Array as="points">
              <mxPoint x="185" y="271" />
              <mxPoint x="185" y="151" />
              <mxPoint x="500" y="151" />
              <mxPoint x="500" y="83" />
            </Array>
          </mxGeometry>
        </mxCell>
        <mxCell id="KnMCrY_Kx2zRuAthfWW4-21" value="" style="verticalLabelPosition=bottom;verticalAlign=top;html=1;shape=mxgraph.basic.half_circle;direction=south;fillColor=#A96E6E;gradientColor=none;" parent="1" vertex="1">
          <mxGeometry x="251" y="196" width="15" height="51" as="geometry" />
        </mxCell>
        <mxCell id="KnMCrY_Kx2zRuAthfWW4-22" value="" style="verticalLabelPosition=bottom;verticalAlign=top;html=1;shape=mxgraph.basic.half_circle;direction=south;fillColor=#A96E6E;gradientColor=none;" parent="1" vertex="1">
          <mxGeometry x="517" y="192" width="15" height="51" as="geometry" />
        </mxCell>
        <mxCell id="KnMCrY_Kx2zRuAthfWW4-24" style="edgeStyle=orthogonalEdgeStyle;rounded=0;orthogonalLoop=1;jettySize=auto;html=1;exitX=1;exitY=0.25;exitDx=0;exitDy=0;entryX=0.17;entryY=0.458;entryDx=0;entryDy=0;entryPerimeter=0;strokeColor=#7D6A00;" parent="1" source="hqVNRMzppCiJ99_KFiAW-30" target="KnMCrY_Kx2zRuAthfWW4-22" edge="1">
          <mxGeometry relative="1" as="geometry">
            <Array as="points">
              <mxPoint x="490" y="201" />
            </Array>
          </mxGeometry>
        </mxCell>
        <mxCell id="KnMCrY_Kx2zRuAthfWW4-25" value="" style="verticalLabelPosition=bottom;verticalAlign=top;html=1;shape=mxgraph.basic.half_circle;direction=south;fillColor=#A96E6E;gradientColor=none;" parent="1" vertex="1">
          <mxGeometry x="245" y="337" width="15" height="51" as="geometry" />
        </mxCell>
        <mxCell id="KnMCrY_Kx2zRuAthfWW4-26" value="" style="verticalLabelPosition=bottom;verticalAlign=top;html=1;shape=mxgraph.basic.half_circle;direction=south;fillColor=#A96E6E;gradientColor=none;" parent="1" vertex="1">
          <mxGeometry x="517" y="337" width="15" height="51" as="geometry" />
        </mxCell>
        <mxCell id="KnMCrY_Kx2zRuAthfWW4-27" value="" style="verticalLabelPosition=bottom;verticalAlign=top;html=1;shape=mxgraph.basic.half_circle;direction=south;fillColor=#A96E6E;gradientColor=none;" parent="1" vertex="1">
          <mxGeometry x="245" y="482" width="15" height="51" as="geometry" />
        </mxCell>
        <mxCell id="KnMCrY_Kx2zRuAthfWW4-28" value="" style="verticalLabelPosition=bottom;verticalAlign=top;html=1;shape=mxgraph.basic.half_circle;direction=south;fillColor=#A96E6E;gradientColor=none;" parent="1" vertex="1">
          <mxGeometry x="515" y="480" width="15" height="51" as="geometry" />
        </mxCell>
        <mxCell id="KnMCrY_Kx2zRuAthfWW4-29" value="" style="verticalLabelPosition=bottom;verticalAlign=top;html=1;shape=mxgraph.basic.half_circle;direction=south;fillColor=#A96E6E;gradientColor=none;" parent="1" vertex="1">
          <mxGeometry x="242" y="632.13" width="15" height="51" as="geometry" />
        </mxCell>
        <mxCell id="KnMCrY_Kx2zRuAthfWW4-30" value="" style="verticalLabelPosition=bottom;verticalAlign=top;html=1;shape=mxgraph.basic.half_circle;direction=south;fillColor=#A96E6E;gradientColor=none;" parent="1" vertex="1">
          <mxGeometry x="517" y="633" width="15" height="51" as="geometry" />
        </mxCell>
        <mxCell id="KnMCrY_Kx2zRuAthfWW4-32" style="edgeStyle=orthogonalEdgeStyle;rounded=0;orthogonalLoop=1;jettySize=auto;html=1;exitX=0;exitY=0.75;exitDx=0;exitDy=0;entryX=0.5;entryY=1;entryDx=0;entryDy=0;entryPerimeter=0;strokeColor=#005700;" parent="1" edge="1">
          <mxGeometry relative="1" as="geometry">
            <mxPoint x="170" y="270.75" as="sourcePoint" />
            <mxPoint x="518" y="217.5" as="targetPoint" />
            <Array as="points">
              <mxPoint x="209" y="271" />
              <mxPoint x="209" y="296" />
              <mxPoint x="503" y="296" />
              <mxPoint x="503" y="218" />
            </Array>
          </mxGeometry>
        </mxCell>
        <mxCell id="KnMCrY_Kx2zRuAthfWW4-33" style="edgeStyle=orthogonalEdgeStyle;rounded=0;orthogonalLoop=1;jettySize=auto;html=1;exitX=0;exitY=0.5;exitDx=0;exitDy=0;entryX=0.588;entryY=0.881;entryDx=0;entryDy=0;entryPerimeter=0;strokeColor=#005700;" parent="1" source="3KepqCRreSBxK8r_iUo3-4" target="KnMCrY_Kx2zRuAthfWW4-25" edge="1">
          <mxGeometry relative="1" as="geometry" />
        </mxCell>
        <mxCell id="KnMCrY_Kx2zRuAthfWW4-34" style="edgeStyle=orthogonalEdgeStyle;rounded=0;orthogonalLoop=1;jettySize=auto;html=1;exitX=0;exitY=0.25;exitDx=0;exitDy=0;entryX=0.5;entryY=1;entryDx=0;entryDy=0;entryPerimeter=0;strokeColor=#005700;" parent="1" source="3KepqCRreSBxK8r_iUo3-4" target="KnMCrY_Kx2zRuAthfWW4-27" edge="1">
          <mxGeometry relative="1" as="geometry">
            <Array as="points">
              <mxPoint x="216" y="464" />
              <mxPoint x="216" y="508" />
            </Array>
          </mxGeometry>
        </mxCell>
        <mxCell id="KnMCrY_Kx2zRuAthfWW4-35" style="edgeStyle=orthogonalEdgeStyle;rounded=0;orthogonalLoop=1;jettySize=auto;html=1;exitX=0;exitY=0.25;exitDx=0;exitDy=0;entryX=0.5;entryY=1;entryDx=0;entryDy=0;entryPerimeter=0;strokeColor=#005700;" parent="1" source="3KepqCRreSBxK8r_iUo3-4" target="KnMCrY_Kx2zRuAthfWW4-28" edge="1">
          <mxGeometry relative="1" as="geometry">
            <Array as="points">
              <mxPoint x="207" y="464" />
              <mxPoint x="207" y="436" />
              <mxPoint x="495" y="436" />
              <mxPoint x="495" y="506" />
            </Array>
          </mxGeometry>
        </mxCell>
        <mxCell id="KnMCrY_Kx2zRuAthfWW4-36" style="edgeStyle=orthogonalEdgeStyle;rounded=0;orthogonalLoop=1;jettySize=auto;html=1;exitX=0;exitY=0.25;exitDx=0;exitDy=0;entryX=0.5;entryY=1;entryDx=0;entryDy=0;entryPerimeter=0;strokeColor=#005700;" parent="1" source="3KepqCRreSBxK8r_iUo3-4" target="KnMCrY_Kx2zRuAthfWW4-26" edge="1">
          <mxGeometry relative="1" as="geometry">
            <Array as="points">
              <mxPoint x="194" y="464" />
              <mxPoint x="194" y="426" />
              <mxPoint x="502" y="426" />
              <mxPoint x="502" y="362" />
            </Array>
          </mxGeometry>
        </mxCell>
        <mxCell id="KnMCrY_Kx2zRuAthfWW4-37" style="edgeStyle=orthogonalEdgeStyle;rounded=0;orthogonalLoop=1;jettySize=auto;html=1;exitX=0;exitY=0.25;exitDx=0;exitDy=0;entryX=0.5;entryY=1;entryDx=0;entryDy=0;entryPerimeter=0;strokeColor=#005700;" parent="1" source="3KepqCRreSBxK8r_iUo3-4" target="KnMCrY_Kx2zRuAthfWW4-29" edge="1">
          <mxGeometry relative="1" as="geometry">
            <Array as="points">
              <mxPoint x="200" y="464" />
              <mxPoint x="200" y="658" />
            </Array>
          </mxGeometry>
        </mxCell>
        <mxCell id="KnMCrY_Kx2zRuAthfWW4-39" value="Async Subscribe Event" style="text;html=1;align=center;verticalAlign=middle;resizable=0;points=[];autosize=1;strokeColor=none;fillColor=none;" parent="1" vertex="1">
          <mxGeometry x="442" y="724" width="141" height="26" as="geometry" />
        </mxCell>
        <mxCell id="KnMCrY_Kx2zRuAthfWW4-40" style="edgeStyle=orthogonalEdgeStyle;rounded=0;orthogonalLoop=1;jettySize=auto;html=1;exitX=0;exitY=0.25;exitDx=0;exitDy=0;entryX=1.026;entryY=0.467;entryDx=0;entryDy=0;entryPerimeter=0;dashed=1;strokeColor=#B20000;" parent="1" source="3KepqCRreSBxK8r_iUo3-4" target="KnMCrY_Kx2zRuAthfWW4-28" edge="1">
          <mxGeometry relative="1" as="geometry">
            <Array as="points">
              <mxPoint x="184" y="464" />
              <mxPoint x="184" y="590" />
              <mxPoint x="523" y="590" />
            </Array>
          </mxGeometry>
        </mxCell>
        <mxCell id="KnMCrY_Kx2zRuAthfWW4-43" style="edgeStyle=orthogonalEdgeStyle;rounded=0;orthogonalLoop=1;jettySize=auto;html=1;exitX=1;exitY=0.75;exitDx=0;exitDy=0;entryX=0.5;entryY=1;entryDx=0;entryDy=0;entryPerimeter=0;dashed=1;strokeColor=#B20000;" parent="1" source="ILpzqOGEgMHz32oO7xNn-94" target="KnMCrY_Kx2zRuAthfWW4-30" edge="1">
          <mxGeometry relative="1" as="geometry">
            <Array as="points">
              <mxPoint x="852" y="600" />
              <mxPoint x="504" y="600" />
              <mxPoint x="504" y="658" />
            </Array>
          </mxGeometry>
        </mxCell>
        <mxCell id="KnMCrY_Kx2zRuAthfWW4-46" value="Rate&lt;div&gt;Limiting&lt;/div&gt;" style="whiteSpace=wrap;html=1;aspect=fixed;rounded=1;glass=0;shadow=1;fillColor=#D88FA9;gradientDirection=west;fontColor=#000000;strokeColor=#A50040;" parent="1" vertex="1">
          <mxGeometry x="-157.75" y="126" width="67" height="67" as="geometry" />
        </mxCell>
        <mxCell id="KnMCrY_Kx2zRuAthfWW4-52" value="Private network" style="text;html=1;align=center;verticalAlign=middle;resizable=0;points=[];autosize=1;strokeColor=none;fillColor=none;fontSize=11;rounded=0;" parent="1" vertex="1">
          <mxGeometry x="-308" width="94" height="25" as="geometry" />
        </mxCell>
        <mxCell id="KnMCrY_Kx2zRuAthfWW4-53" style="edgeStyle=orthogonalEdgeStyle;rounded=0;orthogonalLoop=1;jettySize=auto;html=1;exitX=0.5;exitY=1;exitDx=0;exitDy=0;entryX=0.427;entryY=0.178;entryDx=0;entryDy=0;entryPerimeter=0;" parent="1" source="hqVNRMzppCiJ99_KFiAW-217" target="ILpzqOGEgMHz32oO7xNn-2" edge="1">
          <mxGeometry relative="1" as="geometry" />
        </mxCell>
        <mxCell id="KnMCrY_Kx2zRuAthfWW4-58" value="ILBS" style="text;html=1;align=center;verticalAlign=middle;resizable=0;points=[];autosize=1;strokeColor=none;fillColor=none;fontSize=10;rotation=270;fontStyle=1;fontColor=#FFFFFF;" parent="1" vertex="1">
          <mxGeometry x="233.5" y="70.5" width="40" height="24" as="geometry" />
        </mxCell>
        <mxCell id="KnMCrY_Kx2zRuAthfWW4-59" value="ILBS" style="text;html=1;align=center;verticalAlign=middle;resizable=0;points=[];autosize=1;strokeColor=none;fillColor=none;fontSize=10;rotation=270;fontStyle=1;fontColor=#FFFFFF;" parent="1" vertex="1">
          <mxGeometry x="500" y="70.5" width="40" height="24" as="geometry" />
        </mxCell>
        <mxCell id="KnMCrY_Kx2zRuAthfWW4-60" value="ILBS" style="text;html=1;align=center;verticalAlign=middle;resizable=0;points=[];autosize=1;strokeColor=none;fillColor=none;fontSize=10;rotation=270;fontStyle=1;fontColor=#FFFFFF;" parent="1" vertex="1">
          <mxGeometry x="239" y="212.5" width="40" height="24" as="geometry" />
        </mxCell>
        <mxCell id="KnMCrY_Kx2zRuAthfWW4-61" value="ILBS" style="text;html=1;align=center;verticalAlign=middle;resizable=0;points=[];autosize=1;strokeColor=none;fillColor=none;fontSize=10;rotation=270;fontStyle=1;fontColor=#FFFFFF;" parent="1" vertex="1">
          <mxGeometry x="506" y="209" width="40" height="24" as="geometry" />
        </mxCell>
        <mxCell id="KnMCrY_Kx2zRuAthfWW4-62" value="ILBS" style="text;html=1;align=center;verticalAlign=middle;resizable=0;points=[];autosize=1;strokeColor=none;fillColor=none;fontSize=10;rotation=270;fontStyle=1;fontColor=#FFFFFF;" parent="1" vertex="1">
          <mxGeometry x="233.5" y="354.5" width="40" height="24" as="geometry" />
        </mxCell>
        <mxCell id="KnMCrY_Kx2zRuAthfWW4-63" value="ILBS" style="text;html=1;align=center;verticalAlign=middle;resizable=0;points=[];autosize=1;strokeColor=none;fillColor=none;fontSize=10;rotation=270;fontStyle=1;fontColor=#FFFFFF;" parent="1" vertex="1">
          <mxGeometry x="505" y="352.5" width="40" height="24" as="geometry" />
        </mxCell>
        <mxCell id="KnMCrY_Kx2zRuAthfWW4-64" value="ILBS" style="text;html=1;align=center;verticalAlign=middle;resizable=0;points=[];autosize=1;strokeColor=none;fillColor=none;fontSize=10;rotation=270;fontStyle=1;fontColor=#FFFFFF;" parent="1" vertex="1">
          <mxGeometry x="232.75" y="495.5" width="40" height="24" as="geometry" />
        </mxCell>
        <mxCell id="KnMCrY_Kx2zRuAthfWW4-65" value="ILBS" style="text;html=1;align=center;verticalAlign=middle;resizable=0;points=[];autosize=1;strokeColor=none;fillColor=none;fontSize=10;rotation=270;fontStyle=1;fontColor=#FFFFFF;" parent="1" vertex="1">
          <mxGeometry x="504" y="494.5" width="40" height="24" as="geometry" />
        </mxCell>
        <mxCell id="KnMCrY_Kx2zRuAthfWW4-66" value="ILBS" style="text;html=1;align=center;verticalAlign=middle;resizable=0;points=[];autosize=1;strokeColor=none;fillColor=none;fontSize=10;rotation=270;fontStyle=1;fontColor=#FFFFFF;" parent="1" vertex="1">
          <mxGeometry x="230.75" y="645.5" width="40" height="24" as="geometry" />
        </mxCell>
        <mxCell id="KnMCrY_Kx2zRuAthfWW4-67" value="ILBS" style="text;html=1;align=center;verticalAlign=middle;resizable=0;points=[];autosize=1;strokeColor=none;fillColor=none;fontSize=10;rotation=270;fontStyle=1;fontColor=#FFFFFF;" parent="1" vertex="1">
          <mxGeometry x="506" y="649.5" width="40" height="24" as="geometry" />
        </mxCell>
        <mxCell id="KnMCrY_Kx2zRuAthfWW4-68" style="edgeStyle=orthogonalEdgeStyle;rounded=0;orthogonalLoop=1;jettySize=auto;html=1;exitX=0;exitY=1;exitDx=0;exitDy=0;entryX=1.03;entryY=0.368;entryDx=0;entryDy=0;entryPerimeter=0;dashed=1;strokeColor=#B20000;" parent="1" source="3KepqCRreSBxK8r_iUo3-4" target="KnMCrY_Kx2zRuAthfWW4-60" edge="1">
          <mxGeometry relative="1" as="geometry">
            <Array as="points">
              <mxPoint x="179" y="174" />
              <mxPoint x="179" y="207" />
            </Array>
          </mxGeometry>
        </mxCell>
        <mxCell id="KnMCrY_Kx2zRuAthfWW4-69" value="ALB - Application load balancer" style="text;html=1;align=center;verticalAlign=middle;resizable=0;points=[];autosize=1;strokeColor=none;fillColor=none;" parent="1" vertex="1">
          <mxGeometry x="-316" y="697" width="185" height="26" as="geometry" />
        </mxCell>
        <mxCell id="KnMCrY_Kx2zRuAthfWW4-70" value="ILBS - Internal load balancing service" style="text;html=1;align=center;verticalAlign=middle;resizable=0;points=[];autosize=1;strokeColor=none;fillColor=none;" parent="1" vertex="1">
          <mxGeometry x="-317" y="724" width="217" height="26" as="geometry" />
        </mxCell>
      </root>
    </mxGraphModel>
  </diagram>
</mxfile>
